<svg xmlns="http://www.w3.org/2000/svg" viewBox="0 0 800 824" width="800" height="824" role="img" aria-label="Stylized UN logo">
  <defs>
    <radialGradient id="bg" cx="50%" cy="45%" r="70%">
      <stop offset="0%" stop-color="#1a1a1d"/>
      <stop offset="100%" stop-color="#121214"/>
    </radialGradient>
    <filter id="softShadow" x="-20%" y="-20%" width="140%" height="140%">
      <feOffset dx="0" dy="4" />
      <feGaussianBlur stdDeviation="4" />
      <feColorMatrix
        type="matrix"
        values="0 0 0 0 0
                0 0 0 0 0
                0 0 0 0 0
                0 0 0 .34 0" />
      <feBlend in="SourceGraphic" />
    </filter>
  </defs>

  <rect width="800" height="824" fill="url(#bg)"/>

  <g transform="translate(0,6)" filter="url(#softShadow)">
    <!-- U outline -->
    <path
      d="M252 254 L224 560 Q211 696 364 696 L476 696 Q530 696 543 628 L572 254"
      fill="none"
      stroke="#ffffff"
      stroke-width="156"
      stroke-linecap="butt"
      stroke-linejoin="round"
    />
    <!-- U fill -->
    <path
      d="M252 254 L224 560 Q211 696 364 696 L476 696 Q530 696 543 628 L572 254"
      fill="none"
      stroke="#1d61c8"
      stroke-width="122"
      stroke-linecap="butt"
      stroke-linejoin="round"
    />

    <!-- N outline -->
    <path
      d="M410 688 L472 254 L568 688 L648 254"
      fill="none"
      stroke="#ffffff"
      stroke-width="166"
      stroke-linecap="butt"
      stroke-linejoin="miter"
      stroke-miterlimit="3"
    />
    <!-- N fill -->
    <path
      d="M410 688 L472 254 L568 688 L648 254"
      fill="none"
      stroke="#e00f3a"
      stroke-width="132"
      stroke-linecap="butt"
      stroke-linejoin="miter"
      stroke-miterlimit="3"
    />

    <!-- Blue top-center accent that peeks through the N -->
    <path
      d="M532 258 L596 258 L578 338 L512 338 Z"
      fill="#1f63cc"
      stroke="#ffffff"
      stroke-width="10"
      stroke-linejoin="round"
    />
  </g>
</svg>
